<?xml version="1.0" standalone="no"?>
<!DOCTYPE svg PUBLIC "-//W3C//DTD SVG 20010904//EN"
 "http://www.w3.org/TR/2001/REC-SVG-20010904/DTD/svg10.dtd">
<svg version="1.0" xmlns="http://www.w3.org/2000/svg"
 width="1280.000000pt" height="1184.000000pt" viewBox="0 0 1280.000000 1184.000000"
 preserveAspectRatio="xMidYMid meet">
<metadata>
Created by potrace 1.16, written by Peter Selinger 2001-2019
</metadata>
<g transform="translate(0.000000,1184.000000) scale(0.100000,-0.100000)"
fill="#000000" stroke="none">
<path d="M5220 8190 c-663 -22 -1123 -58 -1325 -105 -273 -63 -520 -256 -625
-489 -106 -233 -160 -802 -160 -1676 0 -909 56 -1464 171 -1696 103 -209 329
-389 574 -458 210 -59 628 -94 1415 -117 454 -13 2213 -6 2565 10 555 26 923
61 1083 102 265 67 511 277 603 514 104 267 167 986 156 1780 -9 647 -57 1155
-138 1445 -59 216 -220 410 -426 513 -177 90 -476 126 -1398 168 -289 13
-2153 20 -2495 9z m1369 -1765 c446 -275 810 -502 810 -505 0 -5 -1611 -1001
-1630 -1008 -5 -2 -9 414 -9 1008 0 597 4 1010 9 1008 5 -1 374 -228 820 -503z"/>
</g>
</svg>
