<?xml version="1.0" encoding="UTF-8" standalone="no"?>
<svg
   xmlns:dc="http://purl.org/dc/elements/1.1/"
   xmlns:cc="http://creativecommons.org/ns#"
   xmlns:rdf="http://www.w3.org/1999/02/22-rdf-syntax-ns#"
   xmlns:svg="http://www.w3.org/2000/svg"
   xmlns="http://www.w3.org/2000/svg"
   id="svg5690"
   version="1.1"
   viewBox="0 0 210 297"
   height="98"
   width="95">
  <title
     id="title5729">download vector</title>
  <defs
     id="defs5684" />
  <metadata
     id="metadata5687">
    <rdf:RDF>
      <cc:Work
         rdf:about="">
        <dc:format>image/svg+xml</dc:format>
        <dc:type
           rdf:resource="http://purl.org/dc/dcmitype/StillImage" />
        <dc:title>download vector</dc:title>
      </cc:Work>
    </rdf:RDF>
  </metadata>
  <g
     id="layer1" />
  <path
     id="path5742"
     d="M 119.88281,293.78347 C 99.852944,290.43128 89.622004,282.49179 88.492104,269.42342 l -0.89108,-10.30607 -38.83558,0.98997 c -45.8184803,1.16797 -62.99654,-2.24334 -65.70853,-13.04878 -1.0071,-4.01262 -0.94033,-8.73697 0.14838,-10.49854 1.13568,-1.83758 -0.57482,-3.20286 -4.01274,-3.20286 -14.00839,0 -15.58946,-2.60272 -15.38521,-25.32679 0.21365,-23.76974 5.24229,-50.77278 11.6504,-62.56096 5.56757,-10.24194 27.4694397,-29.85896 35.88717,-32.14334 8.68515,-2.35695 8.60883,-2.9005 -2.1234803,-15.123921 C -28.763056,54.940181 33.519574,-6.1214731 74.810294,33.899065 c 19.62202,19.018407 20.70378,45.449783 2.64385,64.598885 l -10.17194,10.7854 9.53518,4.37177 c 5.24435,2.40447 13.20862,7.34572 17.69838,10.98056 l 8.163196,6.60879 10.88359,-9.55591 c 5.98597,-5.25575 12.4664,-9.55591 14.40097,-9.55591 1.93456,0 -1.52879,-4.62211 -7.69633,-10.27137 -26.737206,-24.490319 -27.259756,-61.293862 -1.21852,-85.82071 32.33308,-30.452801 81.94764,-14.6179415 93.08878,29.709986 4.88233,19.425594 -0.26327,37.037845 -15.17862,51.953207 l -11.55105,11.551047 9.75328,4.07518 c 16.39346,6.84963 30.67171,26.70068 39.06569,54.31302 10.65858,35.06185 11.25582,38.42948 11.49604,64.82221 0.24479,26.89305 -1.46146,33.23868 -9.63489,35.83282 -3.17968,1.0092 -5.78125,4.43911 -5.78125,7.62204 0,3.18292 -3.11485,7.82806 -6.9219,10.32253 -13.89175,9.10222 -69.82352,13.17725 -103.50194,7.54086 z"
     style="fill:#000000;stroke-width:3.03061223" />
</svg>
