<?xml version="1.0" encoding="UTF-8" standalone="no"?>
<svg
   xmlns:dc="http://purl.org/dc/elements/1.1/"
   xmlns:cc="http://creativecommons.org/ns#"
   xmlns:rdf="http://www.w3.org/1999/02/22-rdf-syntax-ns#"
   xmlns:svg="http://www.w3.org/2000/svg"
   xmlns="http://www.w3.org/2000/svg"
   id="svg5690"
   version="1.1"
   viewBox="0 0 210 297"
   height="95"
   width="115">
  <title
     id="title5729">news vector</title>
  <defs
     id="defs5684" />
  <metadata
     id="metadata5687">
    <rdf:RDF>
      <cc:Work
         rdf:about="">
        <dc:format>image/svg+xml</dc:format>
        <dc:type
           rdf:resource="http://purl.org/dc/dcmitype/StillImage" />
        <dc:title>news vector</dc:title>
      </cc:Work>
    </rdf:RDF>
  </metadata>
  <g
     id="layer1" />
  <path
     id="path5727"
     d="M 76.94001,287.52372 C 41.268175,272.43212 -7.5033603,260.58734 -56.786845,255.04649 l -17.976316,-2.02105 V 126.17025 -0.68494361 L -48.971056,1.1443988 C -5.5663795,4.2229382 49.159793,18.077317 96.0898,37.867746 c 8.91323,3.758717 11.58321,3.375802 28.13684,-4.035251 37.60583,-16.836105 110.11,-33.54603111 145.68651,-33.57614991 l 14.85,-0.012572 V 126.63461 253.02544 l -17.97632,2.02105 c -49.12169,5.52266 -97.43993,17.24191 -135.07574,32.76168 -12.58488,5.18958 -25.15007,9.32444 -27.92266,9.18857 -2.77259,-0.13587 -14.854376,-4.39873 -26.84842,-9.47302 z M 90.931573,164.32941 V 72.057129 L 80.948628,65.986137 C 75.458005,62.647091 57.520768,55.705147 41.088102,50.559594 14.364565,42.191666 3.1173751,39.597455 -33.339477,33.39255 l -10.160527,-1.729306 v 96.403556 96.40354 l 36.7342103,6.94338 c 20.2038157,3.81885 47.9889467,10.89096 61.7447357,15.7158 40.021681,14.03758 35.952631,23.40873 35.952631,-82.80011 z M 44.036837,222.08113 C 29.421311,217.18539 7.1038216,211.3938 -5.5575821,209.21092 -28.009778,205.34008 -33.401038,201.72909 -29.991944,192.84514 c 1.424716,-3.71275 5.268221,-3.67745 26.0091747,0.23885 13.3855803,2.52746 36.3484103,8.4136 51.0285133,13.08031 24.182327,7.6874 26.784072,9.28113 27.680328,16.95589 1.176173,10.07172 2.627024,10.12084 -30.689235,-1.03906 z m 1.563158,-30.12199 c -12.036316,-4.12338 -34.194078,-9.84832 -49.2394729,-12.7221 -24.9096931,-4.75792 -27.3552631,-5.86542 -27.3552631,-12.3881 0,-9.80524 9.450375,-9.45395 53.884963,2.00303 45.608813,11.75974 52.409772,14.89513 52.409772,24.16205 0,8.6893 -1.401596,8.63952 -29.699999,-1.05488 z M 63.42143,167.17448 c -10.83482,-4.73353 -62.67224843,-18.19973 -82.692487,-21.48164 -9.841385,-1.6133 -11.723684,-3.15398 -11.723684,-9.59599 0,-4.83047 1.786527,-7.67412 4.821273,-7.67412 9.276979,0 53.046569,9.9845 77.153483,17.59987 23.126074,7.30553 24.319979,8.13643 24.319979,16.92561 0,5.08362 -0.35171,9.12818 -0.781578,8.98791 -0.429869,-0.14028 -5.423511,-2.283 -11.096986,-4.76164 z M 44.967482,131.09297 C 30.863812,126.18235 8.3543385,120.31955 -5.0535699,118.0645 -27.974291,114.20953 -29.490717,113.46214 -30.420818,105.562 c -0.544082,-4.62135 -0.316127,-8.40244 0.50656,-8.40244 7.55488,0 56.066246,10.99507 77.85899,17.64668 26.015105,7.94037 27.355262,8.78475 27.355262,17.23558 0,4.88739 -1.055131,8.68218 -2.344736,8.43285 -1.289606,-0.24932 -13.884103,-4.47109 -27.987776,-9.3817 z m 0.632513,-29.54718 C 33.563679,97.336281 11.405917,91.634882 -3.6394779,88.876005 L -30.994741,83.859863 V 70.188659 c 0,-12.400513 0.707454,-13.671204 7.611404,-13.671204 11.108281,0 46.725712,7.900115 73.672806,16.34098 l 23.447368,7.344617 0.952873,14.730884 c 1.118664,17.293944 1.321821,17.247774 -29.089715,6.611854 z M 153.78128,247.28133 c 15.30065,-5.12619 43.99672,-12.36613 63.76904,-16.08877 l 35.94967,-6.76842 V 128.0437 31.663244 l -10.16052,1.729306 c -36.45686,6.204905 -47.70405,8.799116 -74.42758,17.167044 -16.43267,5.145553 -34.36991,12.087497 -39.86053,15.426543 l -9.98295,6.070992 v 92.272281 c 0,65.14947 1.01315,92.27226 3.44675,92.27226 1.89572,0 15.96547,-4.19415 31.26612,-9.32034 z m -18.54887,-23.73105 c 0.95085,-8.21115 3.09952,-9.55871 27.72183,-17.38599 14.68011,-4.66671 37.64294,-10.55285 51.02852,-13.0803 20.74095,-3.9163 24.58445,-3.9516 26.00917,-0.23885 3.37286,8.78952 -1.86785,12.41892 -23.21939,16.0803 -18.01119,3.08857 -59.56745,14.69865 -78.19087,21.84512 -3.25001,1.24715 -4.11408,-0.61559 -3.34926,-7.22028 z m -0.53242,-30.17163 c 0,-9.6829 6.33147,-12.64589 52.40978,-24.52668 44.91113,-11.57985 53.88496,-11.85358 53.88496,-1.64366 0,6.70556 -1.78231,7.76604 -16.41316,9.76595 -13.34487,1.82412 -57.66937,13.52898 -84.41052,22.29045 -4.21206,1.38004 -5.47106,0.0256 -5.47106,-5.88606 z m 0,-30.73079 c 0,-8.41445 1.43629,-9.3963 24.31998,-16.62526 24.10692,-7.61537 67.87651,-17.59987 77.15349,-17.59987 3.03474,0 4.82127,2.84365 4.82127,7.67412 0,6.43663 -1.89052,7.98892 -11.72369,9.62625 -21.15672,3.52283 -64.57853,14.56367 -79.72105,20.27062 l -14.85,5.59671 z m 0,-30.27156 c 0,-8.87132 1.03638,-9.53697 27.35527,-17.57006 21.79274,-6.65161 70.30411,-17.64668 77.85898,-17.64668 0.82269,0 1.05063,3.78109 0.50656,8.40244 -0.9277,7.87982 -2.4687,8.65123 -24.77582,12.40261 -20.60625,3.46534 -58.15123,14.08095 -75.47393,21.33977 -4.49207,1.88234 -5.47106,0.64264 -5.47106,-6.92808 z m 0.61029,-37.442364 0.95287,-14.730884 23.44737,-7.344617 c 26.94709,-8.440865 62.56452,-16.34098 73.67281,-16.34098 6.90394,0 7.6114,1.270691 7.6114,13.671204 v 13.671204 l -27.35526,5.005859 c -15.0454,2.753225 -37.80128,8.55934 -50.56864,12.902488 -12.76735,4.34314 -24.45088,7.89662 -25.9634,7.89662 -1.51251,0 -2.32123,-6.6289 -1.79715,-14.730894 z"
     style="fill:#000000;stroke-width:3.12631583" />
</svg>
